Coordinates
version=1
nRows=7
nColumns=63
inDegrees=yes

Units are S.I. units (second, meters, Newtons, ...)
If the header above contains a line with 'inDegrees', this indicates whether rotational values are in degrees (yes) or radians (no).

endheader
time	pelvis_tilt	pelvis_list	pelvis_rotation	pelvis_tx	pelvis_ty	pelvis_tz	hip_flexion_r	hip_adduction_r	hip_rotation_r	knee_angle_r	knee_angle_r_beta	ankle_angle_r	subtalar_angle_r	mtp_angle_r	hip_flexion_l	hip_adduction_l	hip_rotation_l	knee_angle_l	knee_angle_l_beta	ankle_angle_l	subtalar_angle_l	mtp_angle_l	L5_S1_Flex_Ext	L5_S1_Lat_Bending	L5_S1_axial_rotation	L4_L5_Flex_Ext	L4_L5_Lat_Bending	L4_L5_axial_rotation	L3_L4_Flex_Ext	L3_L4_Lat_Bending	L3_L4_axial_rotation	L2_L3_Flex_Ext	L2_L3_Lat_Bending	L2_L3_axial_rotation	L1_L2_Flex_Ext	L1_L2_Lat_Bending	L1_L2_axial_rotation	L1_T12_Flex_Ext	L1_T12_Lat_Bending	L1_T12_axial_rotation	Abs_r3	Abs_r2	Abs_r1	Abs_t1	Abs_t2	neck_flexion	neck_bending	neck_rotation	arm_flex_r	arm_add_r	arm_rot_r	elbow_flex_r	pro_sup_r	wrist_flex_r	wrist_dev_r	arm_flex_l	arm_add_l	arm_rot_l	elbow_flex_l	pro_sup_l	wrist_flex_l	wrist_dev_l
      0.00000000	     -0.07760191	     -2.86924252	     91.67481070	      0.26991097	      0.96882741	      0.44433536	      1.44423042	     -0.15551694	     13.11641213	      1.98261427	      0.03460315	     30.39589748	    -15.55652258	      0.00000000	      4.50070413	     -1.00623601	     20.02591176	      3.25290942	      0.05677398	     34.65490222	     -8.99783485	      0.00000000	      0.39470536	      0.16500467	     -0.88745871	      0.73300732	      0.21945621	     -0.94292488	      0.64846144	      0.40119236	     -0.94292488	      0.45110876	      0.40119236	     -0.77652637	      0.36652340	      0.33647753	     -0.72106020	      0.22553464	      0.25559224	     -0.66559403	      2.81934091	      1.86656584	     -4.93577910	      0.00000000	      0.00000000	     27.27840610	      0.47652335	     13.48852782	     22.01919817	     -3.44742501	     97.83548680	     32.28790737	      2.59952826	     -5.79780471	     14.11597461	     20.15174276	     -2.06555570	     83.26140668	     28.28525493	     81.59324705	     -4.67164519	     -4.99393442
      0.01694915	      0.15902258	     -2.82257427	     91.84199364	      0.26927746	      0.97019825	      0.44422756	      1.13092663	     -0.08621069	     13.52914212	      1.19416534	      0.02084212	     29.99019750	    -15.63155188	      0.00000000	      4.36670235	     -1.26849093	     20.67551801	      2.50508389	      0.04372196	     34.96625208	     -8.89127396	      0.00000000	      0.36447348	      0.20542294	     -0.88426725	      0.67686369	      0.27321251	     -0.93953396	      0.59879348	      0.49946534	     -0.93953396	      0.41655674	      0.49946534	     -0.77373385	      0.33845007	      0.41889846	     -0.71846714	      0.20826014	      0.31820014	     -0.66320044	      2.60339760	      2.32378539	     -4.91802918	      0.00000000	      0.00000000	     27.36898260	      0.60643639	     14.04002763	     21.93241850	     -3.88324782	     98.32236815	     32.75496722	      3.19116246	     -6.43603760	     13.10231965	     20.11166576	     -2.22745420	     82.56830157	     28.84708384	     81.29028130	     -3.86697025	     -6.76830876
      0.03389831	      0.26406340	     -2.86139072	     91.88996965	      0.26921009	      0.97107463	      0.44450349	      1.11159233	     -0.07744311	     13.70738011	      0.88396152	      0.01542804	     29.75410288	    -15.57694097	      0.00000000	      4.45870292	     -1.38108767	     21.04961972	      2.24685899	      0.03921509	     35.26009347	     -8.70244868	      0.00000000	      0.34706100	      0.22170599	     -0.87226453	      0.64452699	      0.29486897	     -0.92678106	      0.57018652	      0.53905595	     -0.92678106	      0.39665602	      0.53905595	     -0.76323146	      0.32228085	      0.45210286	     -0.70871493	      0.19831066	      0.34342258	     -0.65419839	      2.47902205	      2.50798253	     -4.85127361	      0.00000000	      0.00000000	     27.31819150	      0.79949665	     14.14813985	     21.91481259	     -4.15570097	     98.20513874	     33.05315026	      3.16137009	     -6.46508011	     12.81412490	     20.07138483	     -2.50978382	     82.26899744	     29.57906038	     81.09112049	     -3.60296140	     -7.41277528
      0.05084746	      0.35044968	     -2.85278424	     92.14064380	      0.26902847	      0.97172211	      0.44465614	      1.02942891	     -0.04269862	     13.87524528	      0.69771471	      0.01217742	     29.47685700	    -16.02448762	      0.00000000	      4.46244794	     -1.47494698	     21.38941101	      1.98913261	      0.03471691	     35.29562538	     -8.51007958	      0.00000000	      0.32360342	      0.23440289	     -0.93913211	      0.60096390	      0.31175584	     -0.99782787	      0.53164805	      0.56992718	     -0.99782787	      0.36984634	      0.56992718	     -0.82174060	      0.30049813	      0.47799437	     -0.76304484	      0.18490699	      0.36309007	     -0.70434908	      2.31146684	      2.65161234	     -5.22317105	      0.00000000	      0.00000000	     27.12925156	      1.41483670	     14.95649066	     21.50615199	     -4.52374710	     96.21338726	     33.67745425	      2.54931581	     -7.28613811	     12.33625874	     19.63228494	     -2.63739295	     80.90626040	     29.74656656	     79.88341434	     -2.55811369	     -8.04097916
      0.06779661	      0.37686253	     -2.83451286	     92.39451280	      0.26911481	      0.97210323	      0.44492717	      0.96217120	     -0.03671571	     13.67303241	      0.61903686	      0.01080423	     29.33818662	    -16.09355729	      0.00000000	      4.67916305	     -1.50872817	     18.72777306	      2.32559474	      0.04058929	     36.34955911	     -4.41459071	      0.00000000	      0.30344718	      0.22809753	     -0.97361201	      0.56353176	      0.30336971	     -1.03446277	      0.49853338	      0.55459633	     -1.03446277	      0.34680979	      0.55459633	     -0.85191051	      0.28178105	      0.46513648	     -0.79105976	      0.17338972	      0.35332307	     -0.73020901	      2.16749288	      2.58028484	     -5.41493794	      0.00000000	      0.00000000	     26.85332863	      1.85127696	     14.74666990	     20.80569323	     -4.83586278	     92.68111624	     34.18807700	      2.09952925	     -8.01376377	     12.98529627	     19.41519987	     -2.72440105	     80.61552838	     29.94038541	     78.95396930	     -2.48204907	     -7.90760094
      0.08474576	      0.33122458	     -2.80317846	     92.66440097	      0.26938021	      0.97225804	      0.44504660	      0.86555584	     -0.07565800	     13.27967500	      0.57414070	      0.01002065	     29.25202751	    -16.01484034	      0.00000000	      4.84517633	     -1.48944008	     16.47585921	      2.68628595	      0.04688453	     37.15607366	     -0.95949419	      0.00000000	      0.29077400	      0.20908547	     -1.00406918	      0.53999640	      0.27808368	     -1.06682351	      0.47771261	      0.50837041	     -1.06682351	      0.33232561	      0.50837041	     -0.87856053	      0.27001274	      0.42636709	     -0.81580621	      0.16614826	      0.32387339	     -0.75305189	      2.07696962	      2.36521666	     -5.58433157	      0.00000000	      0.00000000	     26.45176699	      2.10912395	     14.30406858	     20.20827071	     -4.99467827	     89.77391757	     34.56998844	      1.79089674	     -8.34130508	     13.27834971	     19.47469449	     -2.78143732	     81.90619589	     30.00019959	     76.37343827	     -2.93139988	     -7.71657740
      0.10169492	      0.33568794	     -2.77821530	     93.10642026	      0.26932130	      0.97221990	      0.44529106	      0.76783544	     -0.06841867	     12.80305467	      0.55415922	      0.00967190	     29.17212882	    -16.13620904	      0.00000000	      5.23788761	     -1.52904635	     12.58849592	      3.50851258	      0.06123510	     38.46091684	      4.60322023	      0.00000000	      0.28136616	      0.19753102	     -1.08917765	      0.52252509	      0.26271626	     -1.15725125	      0.46225646	      0.48027693	     -1.15725125	      0.32157338	      0.48027693	     -0.95303044	      0.26127661	      0.40280527	     -0.88495684	      0.16077262	      0.30597556	     -0.81688324	      2.00977031	      2.23451046	     -6.05767934	      0.00000000	      0.00000000	     26.06048623	      2.26224144	     14.09856829	     19.85130278	     -4.98041879	     88.20371058	     34.69198316	      1.58434951	     -8.17018402	     13.14473674	     19.44639951	     -2.76753225	     82.54044126	     29.90544853	     74.58975354	     -3.04292125	     -7.43169379
